HIERARCHY
ROOT joint_0
{
	OFFSET 0.000000 0.000000 0.000000
	CHANNELS 6 Xposition Yposition Zposition Zrotation Yrotation Xrotation 
	JOINT joint_1
	{
		OFFSET 11.612000 -0.419000 106.198000
		CHANNELS 3 Zrotation Yrotation Xrotation
		JOINT joint_2
		{
			OFFSET -1.708000 -1.022000 97.564090
			CHANNELS 3 Zrotation Yrotation Xrotation
			JOINT joint_3
			{
				OFFSET -4.121000 -1.538000 97.375000
				CHANNELS 3 Zrotation Yrotation Xrotation
				JOINT joint_4
				{
					OFFSET 5.442000 -2.123000 132.795900
					CHANNELS 3 Zrotation Yrotation Xrotation
					JOINT joint_5
					{
						OFFSET 21.935000 0.195000 82.975100
						CHANNELS 3 Zrotation Yrotation Xrotation
						End Site
						{
							OFFSET 0.000000 0.000000 0.000000
						}
					}
				}
				JOINT joint_6
				{
					OFFSET 4.262000 -30.048000 73.899900
					CHANNELS 3 Zrotation Yrotation Xrotation
					JOINT joint_7
					{
						OFFSET 9.731000 -136.810010 -21.963010
						CHANNELS 3 Zrotation Yrotation Xrotation
						JOINT joint_8
						{
							OFFSET 33.360000 -35.709000 -267.597900
							CHANNELS 3 Zrotation Yrotation Xrotation
							JOINT joint_9
							{
								OFFSET 36.156000 -29.759000 -240.558040
								CHANNELS 3 Zrotation Yrotation Xrotation
								End Site
								{
									OFFSET 0.000000 0.000000 0.000000
								}
							}
						}
					}
				}
				JOINT joint_10
				{
					OFFSET 2.027000 27.734000 74.914920
					CHANNELS 3 Zrotation Yrotation Xrotation
					JOINT joint_11
					{
						OFFSET -5.183000 136.784000 -23.604980
						CHANNELS 3 Zrotation Yrotation Xrotation
						JOINT joint_12
						{
							OFFSET 29.806000 37.229000 -267.809940
							CHANNELS 3 Zrotation Yrotation Xrotation
							JOINT joint_13
							{
								OFFSET 36.890000 46.524990 -237.772030
								CHANNELS 3 Zrotation Yrotation Xrotation
								End Site
								{
									OFFSET 0.000000 0.000000 0.000000
								}
							}
						}
					}
				}
			}
		}
	}
	JOINT joint_14
	{
		OFFSET -7.290000 -102.873990 -124.314940
		CHANNELS 3 Zrotation Yrotation Xrotation
		JOINT joint_15
		{
			OFFSET -15.466000 -19.909010 -438.533020
			CHANNELS 3 Zrotation Yrotation Xrotation
			JOINT joint_16
			{
				OFFSET -26.899000 -18.922000 -464.797000
				CHANNELS 3 Zrotation Yrotation Xrotation
				JOINT joint_17
				{
					OFFSET 179.329000 -12.011000 -84.174000
					CHANNELS 3 Zrotation Yrotation Xrotation
					End Site
					{
						OFFSET 0.000000 0.000000 0.000000
					}
				}
			}
		}
	}
	JOINT joint_18
	{
		OFFSET -6.225000 101.546000 -125.479980
		CHANNELS 3 Zrotation Yrotation Xrotation
		JOINT joint_19
		{
			OFFSET -13.973000 7.996000 -438.963010
			CHANNELS 3 Zrotation Yrotation Xrotation
			JOINT joint_20
			{
				OFFSET -44.294000 5.716000 -463.813970
				CHANNELS 3 Zrotation Yrotation Xrotation
				JOINT joint_21
				{
					OFFSET 178.505000 -4.689000 -85.139000
					CHANNELS 3 Zrotation Yrotation Xrotation
					End Site
					{
						OFFSET 0.000000 0.000000 0.000000
					}
				}
			}
		}
	}
}
MOTION
Frames: 18
Frame Time: 0.016667
-3367.349609 883.594482 1126.180054 -2.747467 -4.810220 0.479796 -0.673788 5.431795 1.199718 -0.764880 -1.169669 -0.305086 -0.705788 1.145377 0.153542 0.090816 2.357499 -0.342998 0.000000 0.000000 0.000000 0.293923 -0.764251 1.090291 0.061542 -0.891130 -1.204605 1.147137 -4.926396 3.190628 0.000000 0.000000 0.000000 0.293070 -1.493298 -1.662839 -0.526205 -1.523880 0.978227 -1.785292 -4.704866 -6.122294 0.000000 0.000000 0.000000 -0.722904 3.943139 -0.084565 -0.615021 2.383425 -1.130498 -0.424975 -3.566780 -0.437955 0.000000 0.000000 0.000000 4.406522 4.429343 1.308059 4.339605 -2.067103 0.556459 4.257981 1.462231 2.057874 0.000000 0.000000 0.000000 
-3367.091797 883.365723 1126.279053 -2.653887 -4.704595 0.497206 -0.684590 5.607297 1.253081 -0.780386 -1.186852 -0.332946 -0.719197 1.153256 0.172446 0.097054 2.122254 -0.365135 0.000000 0.000000 0.000000 0.029666 -0.759799 1.229945 0.042369 -0.959628 -1.533159 1.206286 -5.026548 3.458873 0.000000 0.000000 0.000000 0.545112 -1.514526 -1.838666 -0.526991 -1.575264 1.167527 -1.840386 -4.858301 -6.299013 0.000000 0.000000 0.000000 -0.750788 3.890010 -0.087060 -0.642059 2.314260 -1.134614 -0.453554 -3.570754 -0.451622 0.000000 0.000000 0.000000 4.381036 4.347808 1.314887 4.315478 -2.126211 0.506644 4.231239 1.481230 2.045829 0.000000 0.000000 0.000000 
-3366.191650 883.065735 1126.375000 -2.555876 -4.479610 0.520757 -0.706215 5.739231 1.295623 -0.806290 -1.198620 -0.353571 -0.743700 1.158392 0.186445 0.103808 1.747145 -0.390213 0.000000 0.000000 0.000000 -0.223404 -0.676667 1.242866 0.032268 -0.929866 -1.720771 1.315210 -5.392506 3.804581 0.000000 0.000000 0.000000 0.710367 -1.433539 -1.906759 -0.527843 -1.515904 1.292612 -1.938828 -5.196415 -6.575882 0.000000 0.000000 0.000000 -0.775794 3.750347 -0.119556 -0.672034 2.230434 -1.092121 -0.481897 -3.591465 -0.466331 0.000000 0.000000 0.000000 4.349379 4.196177 1.317700 4.284979 -2.232291 0.444746 4.198128 1.502712 2.030946 0.000000 0.000000 0.000000 
-3364.242920 882.628296 1126.431030 -2.469992 -4.053481 0.553116 -0.749125 5.738307 1.300048 -0.851054 -1.195978 -0.348318 -0.789179 1.158009 0.183877 0.112816 1.150926 -0.424825 0.000000 0.000000 0.000000 -0.395291 -0.488492 1.051448 0.038367 -0.749939 -1.630498 1.439384 -5.843610 4.169290 0.000000 0.000000 0.000000 0.631063 -1.189762 -1.786022 -0.511644 -1.261205 1.285689 -2.039262 -5.576033 -6.883621 0.000000 0.000000 0.000000 -0.782597 3.455539 -0.204297 -0.694755 2.126031 -0.956372 -0.498349 -3.608778 -0.475298 0.000000 0.000000 0.000000 4.307717 3.925282 1.312002 4.243973 -2.417432 0.369957 4.155469 1.544997 2.012233 0.000000 0.000000 0.000000 
-3361.440430 882.077087 1126.469971 -2.384766 -3.454179 0.595076 -0.811249 5.635826 1.277018 -0.912979 -1.171077 -0.324364 -0.853743 1.141912 0.168315 0.123295 0.356299 -0.463604 0.000000 0.000000 0.000000 -0.527913 -0.227575 0.728141 0.056035 -0.470587 -1.362441 1.565076 -6.272553 4.555436 0.000000 0.000000 0.000000 0.376750 -0.826684 -1.544818 -0.475294 -0.862080 1.193143 -2.127908 -5.934161 -7.200769 0.000000 0.000000 0.000000 -0.775957 3.029753 -0.333301 -0.712908 1.994499 -0.744285 -0.507448 -3.610926 -0.479835 0.000000 0.000000 0.000000 4.254861 3.548768 1.299741 4.191874 -2.673738 0.277393 4.102322 1.615894 1.989362 0.000000 0.000000 0.000000 
-3358.088623 881.521057 1126.479980 -2.311764 -2.828499 0.632258 -0.866428 5.568232 1.269709 -0.969272 -1.151155 -0.313244 -0.911615 1.129395 0.161375 0.130297 -0.485226 -0.485482 0.000000 0.000000 0.000000 -0.666573 0.252965 0.243120 0.091544 0.046031 -0.961657 1.957116 -8.262430 5.193350 0.000000 0.000000 0.000000 0.169015 -0.283124 -1.186668 -0.449161 -0.297760 1.051864 -2.450222 -7.399595 -7.941213 0.000000 0.000000 0.000000 -0.787027 2.592002 -0.469329 -0.751689 1.905888 -0.535510 -0.530356 -3.734821 -0.498988 0.000000 0.000000 0.000000 4.215092 3.179911 1.289877 4.152337 -2.927207 0.209244 4.063246 1.621564 1.971271 0.000000 0.000000 0.000000 
-3354.434570 881.067139 1126.453003 -2.260089 -2.280100 0.650331 -0.894635 5.632099 1.316293 -1.002731 -1.157934 -0.335732 -0.943622 1.137676 0.177591 0.133423 -1.272719 -0.490191 0.000000 0.000000 0.000000 -0.782378 1.154942 -0.188746 0.140727 0.975606 -0.662339 2.824755 -13.109576 6.161118 0.000000 0.000000 0.000000 0.135297 0.537750 -0.895825 -0.383475 0.530209 0.991462 -3.122786 -10.829565 -9.259365 0.000000 0.000000 0.000000 -0.846438 2.216791 -0.594614 -0.839206 1.926834 -0.373685 -0.589560 -4.097977 -0.551168 0.000000 0.000000 0.000000 4.209727 2.900651 1.285906 4.145312 -3.133227 0.207027 4.059836 1.496612 1.966338 0.000000 0.000000 0.000000 
-3350.367432 880.675110 1126.395996 -2.225117 -1.753035 0.655103 -0.904768 5.773981 1.399159 -1.020971 -1.178871 -0.372460 -0.959281 1.159696 0.201504 0.135472 -2.068070 -0.490721 0.000000 0.000000 0.000000 -0.846191 2.410857 -0.303936 0.191339 2.221960 -0.691417 4.001254 -20.120432 7.177420 0.000000 0.000000 0.000000 0.187903 1.574363 -0.825381 -0.172549 1.610602 1.150274 -3.957425 -15.736119 -10.966197 0.000000 0.000000 0.000000 -0.942160 1.858587 -0.723601 -0.965597 2.030046 -0.228576 -0.676938 -4.644443 -0.628838 0.000000 0.000000 0.000000 4.229520 2.667486 1.283357 4.161732 -3.320607 0.254659 4.082779 1.280903 1.971249 0.000000 0.000000 0.000000 
-3345.645508 880.182983 1126.292969 -2.209347 -1.213767 0.662706 -0.899693 5.968120 1.474145 -1.025403 -1.213295 -0.402945 -0.961354 1.190110 0.222251 0.133828 -2.890402 -0.477721 0.000000 0.000000 0.000000 -1.006855 3.632212 -0.553820 0.282716 3.413130 -0.822701 5.304925 -28.519144 8.172787 0.000000 0.000000 0.000000 0.306238 2.520878 -0.524728 0.187742 2.633865 1.510032 -4.893494 -21.819194 -13.533080 0.000000 0.000000 0.000000 -1.025113 1.528336 -0.818168 -1.074831 2.135419 -0.138899 -0.747571 -5.265239 -0.703607 0.000000 0.000000 0.000000 4.253168 2.449907 1.293809 4.183254 -3.470609 0.290055 4.107825 0.972663 1.974591 0.000000 0.000000 0.000000 
-3340.297852 879.470337 1126.163940 -2.208529 -0.653874 0.682323 -0.876325 6.230191 1.519066 -1.012629 -1.265228 -0.416001 -0.947167 1.229263 0.233054 0.128324 -3.790486 -0.448786 0.000000 0.000000 0.000000 -1.381786 4.670533 -1.164745 0.395493 4.392782 -1.051817 6.721052 -38.713882 9.157719 0.000000 0.000000 0.000000 0.483933 3.181892 0.203748 0.811705 3.445164 2.387434 -5.936311 -29.411843 -17.758478 0.000000 0.000000 0.000000 -1.061069 1.246066 -0.844244 -1.126357 2.180604 -0.143163 -0.768811 -5.900862 -0.756137 0.000000 0.000000 0.000000 4.264985 2.220002 1.336330 4.197544 -3.544430 0.260637 4.116624 0.548315 1.967148 0.000000 0.000000 0.000000 
-3334.417480 878.597595 1126.014038 -2.221268 -0.084618 0.707709 -0.831386 6.568374 1.549626 -0.980221 -1.335864 -0.416868 -0.914233 1.281435 0.230855 0.117126 -4.766705 -0.396108 0.000000 0.000000 0.000000 -1.945371 5.543109 -1.598476 0.431154 5.108937 -1.781889 8.139840 -50.601919 9.994242 0.000000 0.000000 0.000000 0.737330 3.508048 0.865329 1.860485 4.062935 4.092891 -6.892909 -38.454567 -23.386718 0.000000 0.000000 0.000000 -1.068870 1.006351 -0.816887 -1.141663 2.194308 -0.226424 -0.758257 -6.587524 -0.797092 0.000000 0.000000 0.000000 4.272869 1.987586 1.406122 4.211336 -3.549568 0.190441 4.118202 0.012568 1.953231 0.000000 0.000000 0.000000 
-3327.158203 877.636841 1125.713013 -2.271193 0.548193 0.742877 -0.790052 6.833272 1.540912 -0.950588 -1.387697 -0.412131 -0.884906 1.317004 0.225470 0.094182 -5.641837 -0.291964 0.000000 0.000000 0.000000 -2.516190 5.893452 -1.950490 0.329073 5.261769 -2.771799 9.326759 -61.819724 10.852144 0.000000 0.000000 0.000000 1.002323 3.435671 1.502455 3.020364 4.327379 5.683945 -7.550120 -47.808907 -28.405027 0.000000 0.000000 0.000000 -1.063431 0.759863 -0.778827 -1.143465 2.220823 -0.329519 -0.735776 -7.265648 -0.831771 0.000000 0.000000 0.000000 4.286863 1.795810 1.453398 4.228541 -3.604169 0.132948 4.125573 -0.524182 1.941684 0.000000 0.000000 0.000000 
-3317.979736 876.723267 1125.166016 -2.396650 1.291992 0.782056 -0.764130 6.921181 1.481195 -0.933266 -1.394733 -0.395336 -0.869753 1.315456 0.213815 0.057991 -6.289686 -0.129077 0.000000 0.000000 0.000000 -2.881282 5.577196 -2.312283 -0.055315 4.822716 -3.927773 10.260569 -71.926386 11.853405 0.000000 0.000000 0.000000 1.167840 3.087723 2.266663 3.975118 4.295790 6.404711 -8.011312 -57.587357 -31.298562 0.000000 0.000000 0.000000 -1.044268 0.447484 -0.752200 -1.138186 2.309145 -0.414540 -0.705082 -7.905971 -0.859935 0.000000 0.000000 0.000000 4.315954 1.682898 1.438404 4.252628 -3.821888 0.137880 4.150574 -0.985779 1.939787 0.000000 0.000000 0.000000 
-3307.210205 875.833252 1124.425049 -2.587745 2.125718 0.819536 -0.744494 6.891598 1.382826 -0.920164 -1.374815 -0.368616 -0.860489 1.289977 0.196536 0.011604 -6.776970 0.083759 0.000000 0.000000 0.000000 -3.122471 4.515489 -2.558290 -0.830901 3.771835 -5.310263 11.002469 -81.722852 12.883215 0.000000 0.000000 0.000000 1.259672 2.386387 3.084263 4.790464 3.916053 6.513792 -8.371648 -68.034270 -32.444927 0.000000 0.000000 0.000000 -1.006729 0.088401 -0.719372 -1.118128 2.442083 -0.503942 -0.660280 -8.517641 -0.879404 0.000000 0.000000 0.000000 4.356211 1.632683 1.380568 4.281917 -4.158786 0.186860 4.188702 -1.398654 1.944529 0.000000 0.000000 0.000000 
-3294.717285 874.561035 1123.514038 -2.736711 2.999056 0.885893 -0.759625 6.763761 1.224158 -0.938381 -1.330433 -0.335237 -0.884208 1.243294 0.177682 -0.045212 -7.151518 0.349762 0.000000 0.000000 0.000000 -3.517680 2.539064 -2.825019 -1.878147 2.119490 -6.464765 11.567324 -89.848843 14.392651 0.000000 0.000000 0.000000 1.418547 1.166052 3.941010 5.584810 2.996765 6.360072 -8.606465 -77.325967 -33.039303 0.000000 0.000000 0.000000 -0.993757 -0.190716 -0.698699 -1.116393 2.515261 -0.596854 -0.641593 -8.997607 -0.902001 0.000000 0.000000 0.000000 4.394259 1.602351 1.313119 4.309661 -4.459549 0.212187 4.223572 -1.734372 1.948827 0.000000 0.000000 0.000000 
-3280.206787 872.552490 1122.343994 -2.744052 3.904243 1.030773 -0.842314 6.530264 0.954225 -1.017452 -1.271106 -0.287220 -0.971422 1.190246 0.154616 -0.111039 -7.470547 0.661776 0.000000 0.000000 0.000000 -4.364981 -0.509236 -2.963336 -3.152243 0.000281 -7.438809 -168.052529 -83.972183 -162.837044 0.000000 0.000000 0.000000 1.756632 -0.728797 4.651929 6.764794 1.450798 6.589852 -8.605777 -85.004283 -34.483622 0.000000 0.000000 0.000000 -1.037841 -0.288998 -0.721588 -1.155381 2.397605 -0.705693 -0.680625 -9.241637 -0.935272 0.000000 0.000000 0.000000 4.410781 1.566584 1.245331 4.320381 -4.668478 0.147939 4.233281 -1.923630 1.943965 0.000000 0.000000 0.000000 
-3263.733887 869.959656 1120.904053 -2.644736 4.860276 1.247157 -0.986537 6.186463 0.582255 -1.150909 -1.204347 -0.205805 -1.118401 1.138469 0.111803 -0.177220 -7.715632 0.981981 0.000000 0.000000 0.000000 -5.572107 -4.885679 -2.550812 -4.845911 -2.503337 -8.458892 -168.158181 -78.858314 -158.692712 0.000000 0.000000 0.000000 2.210606 -3.379211 5.053394 8.458100 -0.692585 7.102594 171.703735 -88.086477 143.589326 0.000000 0.000000 0.000000 -1.123816 -0.252931 -0.780652 -1.223142 2.121900 -0.831524 -0.764701 -9.260126 -0.973710 0.000000 0.000000 0.000000 4.408080 1.540407 1.164657 4.314061 -4.846404 0.018701 4.221807 -1.950384 1.931909 0.000000 0.000000 0.000000 
-3246.167969 867.181030 1119.672974 -2.564478 5.753543 1.431288 -1.129993 5.820215 0.263819 -1.285428 -1.124518 -0.123845 -1.267386 1.072693 0.066622 -0.245200 -7.788403 1.351042 0.000000 0.000000 0.000000 -6.656916 -10.048049 -2.068670 -6.614334 -4.970646 -8.479294 -168.919026 -75.907347 -154.352162 0.000000 0.000000 0.000000 2.609905 -6.453677 5.503624 10.024045 -3.031604 6.740571 172.145742 -82.937175 142.284113 0.000000 0.000000 0.000000 -1.235315 -0.164285 -0.805870 -1.320325 1.969511 -0.904573 -0.875262 -9.172242 -1.016631 0.000000 0.000000 0.000000 4.432605 1.519835 1.118663 4.338980 -4.797224 -0.082695 4.237033 -1.991913 1.930668 0.000000 0.000000 0.000000 
